# xmcd CD database file
#
# Track frame offsets:
#	150
#	18055
#	34748
#	52913
#	67518
#	80958
#	99299
#	111246
#	131535
#	149083
#	163907
#	184824
#	202792
#
# Disc length: 2925 seconds
#
# Revision: 0
# Processed by: cddbd v1.5.2PL0 Copyright (c) Steve Scherf et al.
# Submitted via: CDex 1.51
#
DISCID=a90b6b0d
DTITLE=Carrie Underwood - Play On
DYEAR=2009
DGENRE=Country
TTITLE0=Cowboy Casanova
TTITLE1=Quitter
TTITLE2=Mama's Song
TTITLE3=Change
TTITLE4=Undo It
TTITLE5=Someday When I Stop Loving You
TTITLE6=Songs Like This
TTITLE7=Temporary Home
TTITLE8=This Time
TTITLE9=Look At Me
TTITLE10=Unapologize
TTITLE11=What Can I Say (feat. Sons of Sylvia)
TTITLE12=Play On
EXTD=YEAR: 2009
EXTT0=
EXTT1=
EXTT2=
EXTT3=
EXTT4=
EXTT5=
EXTT6=
EXTT7=
EXTT8=
EXTT9=
EXTT10=
EXTT11=
EXTT12=
PLAYORDER=
